<svg width="753" height="378" viewBox="0 0 753 378" fill="none" xmlns="http://www.w3.org/2000/svg">
<path d="M301.759 356.619L300.761 359.611H295.173V312.142H302.557V330.491H302.956C304.952 328.297 308.544 326.502 312.935 326.502C321.716 326.502 328.702 334.081 328.702 343.455C328.702 352.83 321.517 360.409 312.336 360.409C303.156 360.409 304.553 359.013 301.958 356.819L301.759 356.619ZM302.358 337.272V351.832C304.553 353.428 307.547 354.026 311.139 354.026C316.527 354.026 321.118 349.24 321.118 343.256C321.118 337.272 316.527 332.486 311.139 332.486C305.75 332.486 304.154 333.882 302.358 337.272Z" fill="#CCCCCC"/>
<path d="M348.061 348.84L348.659 351.233H349.058L357.041 326.9H365.224L350.455 364.796C348.061 370.979 344.668 375.766 335.088 375.766L334.689 369.782C339.678 369.782 341.874 367.987 343.67 363.799L345.266 359.411L331.695 327.1H339.878L348.26 349.039L348.061 348.84Z" fill="#CCCCCC"/>
<path d="M406.337 348.042C406.337 348.042 403.942 345.05 402.545 343.455L400.549 348.242C403.343 352.43 405.339 356.22 406.337 358.015C408.332 354.624 413.322 344.252 423.7 334.679L422.502 332.086C415.717 337.072 410.128 343.255 406.337 348.042Z" fill="#CCCCCC"/>
<path fill-rule="evenodd" clip-rule="evenodd" d="M509.318 349.04C509.318 351.832 510.914 353.228 513.509 353.627V360.209C505.925 360.209 501.934 356.419 501.934 349.439V310.745H509.517V349.04H509.318Z" fill="#CCCCCC"/>
<path fill-rule="evenodd" clip-rule="evenodd" d="M532.868 325.305C523.488 325.305 516.104 333.083 516.104 342.657C516.104 352.231 523.288 360.009 532.269 360.009C541.25 360.009 540.452 358.214 542.647 355.821H543.046V359.411H550.63V325.903H543.046V328.296H542.647C540.452 326.501 537.259 325.305 532.868 325.305ZM533.666 353.826C528.078 353.826 523.488 348.84 523.488 342.657C523.488 336.474 528.078 331.488 533.666 331.488C539.254 331.488 540.651 332.485 542.847 334.28V348.64C540.851 352.231 537.458 353.826 533.666 353.826Z" fill="#CCCCCC"/>
<path fill-rule="evenodd" clip-rule="evenodd" d="M556.618 359.61H564.201V336.075C566.596 333.682 569.79 332.086 573.582 332.086H575.178V325.305H574.18C569.989 325.305 566.596 327.299 564.401 329.892H564.002V325.903H556.418V359.411L556.618 359.61Z" fill="#CCCCCC"/>
<path fill-rule="evenodd" clip-rule="evenodd" d="M477.985 325.305C468.605 325.305 461.22 333.083 461.22 342.657C461.22 352.231 468.405 360.009 477.386 360.009C486.367 360.009 485.568 358.214 487.764 355.821H488.163V359.411H495.747V325.903H488.163V328.296H487.764C485.568 326.501 482.375 325.305 477.985 325.305ZM478.982 353.826C473.394 353.826 468.804 348.84 468.804 342.657C468.804 336.474 473.394 331.488 478.982 331.488C484.571 331.488 485.968 332.485 488.163 334.28V348.64C486.167 352.231 482.774 353.826 478.982 353.826Z" fill="#CCCCCC"/>
<path fill-rule="evenodd" clip-rule="evenodd" d="M593.539 325.305C584.159 325.305 576.774 333.083 576.774 342.657C576.774 352.231 583.959 360.009 592.94 360.009C601.921 360.009 601.123 358.214 603.318 355.821H603.717V359.411H611.301V325.903H603.717V328.296H603.318C601.123 326.501 597.929 325.305 593.539 325.305ZM594.337 353.826C588.749 353.826 584.159 348.84 584.159 342.657C584.159 336.474 588.749 331.488 594.337 331.488C599.925 331.488 601.322 332.485 603.518 334.28V348.64C601.522 352.231 598.129 353.826 594.337 353.826Z" fill="#CCCCCC"/>
<path d="M421.305 359.412H429.487L422.303 342.259C420.107 344.453 418.311 346.647 416.715 348.841L421.305 359.611V359.412Z" fill="#CCCCCC"/>
<path d="M453.836 326.103L443.258 350.436H443.058H442.859L432.481 326.103H424.298L439.267 359.411H439.466H446.85H447.05L461.819 326.103H453.836Z" fill="#CCCCCC"/>
<path d="M409.929 312.739H402.744L383.186 359.411H391.368L405.538 326.102L406.137 324.307H406.536L407.135 326.102L411.326 336.075C413.122 334.28 415.318 332.285 417.313 330.69L409.929 312.739Z" fill="#CCCCCC"/>
<path d="M431.882 128.048C422.901 112.491 410.128 100.524 394.362 91.5483C378.196 82.9719 360.035 78.584 339.479 78.584C318.922 78.584 300.761 82.9719 284.595 91.5483C268.43 100.524 255.856 112.69 246.875 128.048C237.495 143.605 232.905 161.157 232.905 181.301C232.905 201.446 237.495 218.399 246.875 233.957C255.856 249.514 268.629 261.481 284.595 270.257C300.761 279.232 318.922 283.62 339.479 283.62C360.035 283.62 378.196 279.232 394.362 270.257C400.349 266.866 406.137 263.076 411.126 258.489C417.712 253.503 423.3 247.32 427.492 240.139C429.288 238.344 430.685 236.15 431.882 233.957C441.262 218.399 445.853 200.848 445.853 181.301C445.853 161.755 441.262 143.605 431.882 128.048ZM379.194 207.23C375.203 215.009 369.814 220.793 363.029 225.58C356.243 229.967 348.06 232.161 339.479 232.161C330.897 232.161 322.714 229.967 315.929 225.58C309.143 220.992 303.555 215.009 299.563 207.23C295.572 199.451 293.576 190.875 293.576 181.301C293.576 171.728 295.372 162.154 299.563 154.774C303.555 146.996 309.143 140.813 315.929 136.425C322.714 131.837 330.897 129.643 339.479 129.643C348.06 129.643 356.243 131.837 363.029 136.225C369.814 140.613 375.203 146.796 379.194 154.575C383.186 162.354 385.181 171.329 384.782 181.501C385.181 191.074 383.186 199.85 379.194 207.429" fill="#CCCCCC"/>
<path d="M198.977 128.048C189.996 112.491 177.223 100.524 161.457 91.5483C145.291 82.9719 127.13 78.584 106.574 78.584C86.0172 78.584 67.8558 82.9719 51.6902 91.5483C35.5245 100.524 22.9512 112.69 13.9703 128.048C4.59025 143.605 0 161.157 0 181.301C0 201.446 4.59025 218.399 13.9703 233.957C22.9512 249.514 35.7241 261.481 51.6902 270.257C67.8558 279.232 86.0172 283.62 106.574 283.62C127.13 283.62 145.291 279.232 161.457 270.257C167.444 266.866 173.232 263.076 178.221 258.489C184.807 253.503 190.395 247.32 194.587 240.139C196.383 238.344 197.78 236.15 198.977 233.957C208.357 218.399 212.948 200.848 212.948 181.301C212.948 161.755 208.357 143.605 198.977 128.048ZM146.289 207.23C142.298 215.009 136.909 220.793 130.124 225.58C123.338 229.967 115.155 232.161 106.574 232.161C97.9918 232.161 89.8092 229.967 83.0236 225.58C76.238 220.992 70.6499 215.009 66.6584 207.23C62.6669 199.451 60.6711 190.875 60.6711 181.301C60.6711 171.728 62.4673 162.154 66.6584 154.774C70.6499 146.996 76.238 140.813 83.0236 136.425C89.8092 131.837 97.9918 129.643 106.574 129.643C115.155 129.643 123.338 131.837 130.124 136.225C136.909 140.613 142.298 146.796 146.289 154.575C150.281 162.354 152.276 171.329 151.877 181.501C152.276 191.074 150.281 199.85 146.289 207.429" fill="#CCCCCC"/>
<path d="M745.416 78.5834H737.633L701.31 78.9823C695.921 79.5806 691.93 83.9686 691.93 89.3537V158.164V272.251C691.93 290.002 685.943 322.512 647.025 322.512V360.408H669.977C741.026 360.408 751.803 304.163 751.803 286.212V76.5889C751.803 76.5889 751.603 78.3839 745.416 78.3839V78.5834Z" fill="#CCCCCC"/>
<path d="M689.934 31.5133C689.934 14.161 704.104 0 721.467 0C738.83 0 753 13.9616 753 31.5133C753 49.065 738.83 63.0266 721.467 63.0266C704.104 63.0266 689.934 49.065 689.934 31.5133Z" fill="#CCCCCC"/>
<path d="M659.379 128.686C651.655 113.249 641.457 101.202 628.165 92.2463C614.894 83.291 599.726 78.9629 582.742 78.9629C574.4 78.9629 566.676 80.1995 558.932 82.6727C551.209 85.1459 544.403 88.5365 537.917 92.8646C533.287 95.9561 529.575 99.9651 525.863 103.974V2.39355C525.863 2.39355 468.245 5.48505 467.527 5.52494C466.728 5.52494 465.89 6.16318 465.89 7.32C465.89 10.232 465.89 232.221 465.89 232.221C507.402 232.221 517.081 283.42 584.259 283.42C600.644 283.42 615.472 279.092 628.764 270.137C641.736 261.501 651.935 249.454 659.678 233.996C667.103 218.858 671.114 201.246 671.114 181.501C671.114 161.755 667.103 144.124 659.359 128.686M607.13 208.686C603.418 216.405 598.169 222.588 591.683 226.916C585.197 231.244 577.453 233.398 568.492 233.398C559.531 233.398 551.788 231.244 545.301 226.916C538.516 222.588 533.247 216.425 529.535 208.686C525.823 200.967 523.967 191.693 523.967 181.501C523.967 171.309 525.823 161.735 529.535 153.697C533.247 145.979 538.496 140.115 545.301 135.787C551.788 131.458 559.531 129.304 568.492 129.304C577.453 129.304 585.197 131.458 591.982 135.787C598.788 140.115 603.717 145.979 607.429 153.697C610.822 161.735 612.678 170.99 612.678 181.501C612.678 192.012 610.842 200.967 607.11 208.686" fill="#CCCCCC"/>
</svg>
