<svg width="1145" height="359" viewBox="0 0 1145 359" fill="none" xmlns="http://www.w3.org/2000/svg">
<g clip-path="url(#clip0_45_465)">
<path d="M243.219 71.6134C242.096 71.6134 217.587 69.7436 217.587 69.7436C217.587 69.7436 200.562 52.7285 198.504 51.0457C197.756 50.2978 196.82 49.9238 196.072 49.9238L182.414 331.514L281.199 310.199C281.199 310.199 246.587 76.1009 246.399 74.4181C245.651 72.7353 244.341 71.9874 243.219 71.6134Z" fill="#CCCCCC"/>
<path fill-rule="evenodd" clip-rule="evenodd" d="M243.219 71.9872C244.342 71.9872 245.838 72.7351 246.025 74.4179C246.088 74.9809 250.004 101.515 255.18 136.594C265.477 206.369 280.762 309.95 280.637 310.199L181.853 331.514L-0.187012 297.484C-0.187012 297.484 23.1994 116.675 24.1349 110.318C25.2574 101.904 25.4445 101.717 34.4249 98.9121C35.1347 98.6081 38.8123 97.4802 44.5939 95.707C49.4796 94.2086 55.8677 92.2494 63.237 89.9372C69.411 63.7601 89.2427 12.3408 130.403 12.3408C135.641 12.3408 142.003 15.3325 146.867 21.6898H148.551C166.324 21.6898 176.24 36.8351 182.04 53.4762C187.84 51.6064 191.395 50.4846 191.582 50.4846C193.078 50.1106 196.633 49.5497 198.504 51.4195C200.562 53.1023 217.587 70.1174 217.587 70.1174C217.587 70.1174 242.096 71.9872 243.219 71.9872ZM156.596 60.9554C162.021 59.0856 167.447 57.4028 171.937 56.0939C168.008 44.1273 162.208 33.8434 152.854 32.7215C155.286 39.2658 156.596 47.4929 156.596 57.5897V60.9554ZM145.557 62.4512C145.557 50.1106 143.873 41.1356 141.441 34.7783C131.712 39.0788 119.926 50.6715 113.752 74.2309C120.371 72.1004 126.856 70.1045 133.166 68.1624C137.379 66.8659 141.513 65.5935 145.557 64.321V62.4512ZM134.706 25.0554C133.209 23.9335 131.338 23.1856 129.467 23.1856C99.9069 23.1856 83.0687 62.0773 76.3334 86.0106C80.6534 84.6049 85.0812 83.2532 89.617 81.8685C93.528 80.6745 97.5193 79.4561 101.591 78.1574C107.391 46.745 121.422 31.2257 134.706 25.0554ZM136.577 162.298L148.551 126.211C148.551 126.211 140.319 121.35 124.229 121.537C81.0107 121.537 59.6823 150.331 59.6823 180.061C59.6823 200.042 70.8087 209.081 80.5458 216.991C88.1211 223.145 94.8555 228.616 94.8555 238.024C94.8555 243.26 91.1137 250.365 81.9462 250.365C68.1014 250.365 51.6374 236.155 51.6374 236.155L43.2183 263.828C43.2183 263.828 58.9339 283.273 90.3653 283.273C116.371 283.273 135.641 263.641 135.641 233.163C135.641 209.734 119.874 198.158 107.428 189.02C99.3134 183.062 92.6104 178.141 92.6104 171.647C92.6104 168.655 93.5459 156.502 112.816 156.502C125.726 156.502 136.577 162.298 136.577 162.298Z" fill="#CCCCCC"/>
<path d="M395.886 194.084C385.97 188.848 380.918 184.174 380.918 178.004C380.918 170.151 388.028 165.102 399.066 165.102C411.975 165.102 423.388 170.338 423.388 170.338L432.368 142.852C432.368 142.852 424.136 136.494 399.815 136.494C365.951 136.494 342.377 155.94 342.377 183.239C342.377 198.758 353.416 210.538 368.009 218.952C379.983 225.496 384.099 230.358 384.099 237.463C384.099 244.755 378.112 250.739 367.074 250.739C350.797 250.739 335.268 242.325 335.268 242.325L325.726 269.81C325.726 269.81 339.945 279.346 363.893 279.346C398.692 279.346 423.949 262.144 423.949 231.293C423.575 214.465 411.04 202.872 395.886 194.084ZM534.707 136.12C517.495 136.12 504.025 144.347 493.734 156.688L493.36 156.501L508.328 78.7178H469.6L431.807 276.916H470.535L483.444 209.229C488.496 183.613 501.779 167.72 514.127 167.72C522.921 167.72 526.288 173.703 526.288 182.117C526.288 187.353 525.914 194.084 524.605 199.319L510.011 276.916H548.739L563.894 196.889C565.578 188.475 566.7 178.378 566.7 171.459C566.513 149.209 555.1 136.12 534.707 136.12ZM654.259 136.12C607.486 136.12 576.616 178.191 576.616 225.122C576.616 255.039 595.138 279.346 629.937 279.346C675.775 279.346 706.645 238.398 706.645 190.344C706.832 162.484 690.742 136.12 654.259 136.12ZM635.176 249.804C621.892 249.804 616.467 238.585 616.467 224.375C616.467 202.124 627.879 166.037 649.02 166.037C662.678 166.037 667.355 178.004 667.355 189.409C667.355 213.156 655.569 249.804 635.176 249.804ZM805.99 136.12C779.797 136.12 765.017 159.306 765.017 159.306H764.643L766.888 138.551H732.463C730.779 152.575 727.599 174.077 724.605 189.97L697.851 331.888H736.579L747.431 274.485H748.366C748.366 274.485 756.411 279.533 771.004 279.533C816.654 279.533 846.402 232.789 846.402 185.67C846.215 159.493 834.428 136.12 805.99 136.12ZM768.946 250.178C758.843 250.178 752.856 244.381 752.856 244.381L759.217 208.294C763.707 183.987 776.43 168.094 789.9 168.094C801.874 168.094 805.429 179.126 805.429 189.409C805.616 214.465 790.649 250.178 768.946 250.178ZM901.594 80.5876C889.246 80.5876 879.33 90.4975 879.33 103.025C879.33 114.431 886.627 122.471 897.665 122.471H898.039C910.2 122.471 920.49 114.244 920.677 100.033C920.864 88.6277 913.194 80.5876 901.594 80.5876ZM847.337 276.729H886.065L912.258 139.112H873.343M1011.04 138.925H984.101L985.411 132.568C987.656 119.292 995.514 107.7 1008.61 107.7C1015.53 107.7 1020.96 109.756 1020.96 109.756L1028.44 79.2787C1028.44 79.2787 1021.89 75.9131 1007.3 75.9131C993.643 75.9131 979.798 79.8396 969.321 88.8146C956.038 100.033 949.864 116.301 946.87 132.755L945.748 139.112H927.6L921.8 168.468H939.948L919.368 276.916H958.096L978.676 168.468H1005.43L1011.04 138.925ZM1104.4 139.112C1104.4 139.112 1080.08 200.254 1069.41 233.723H1069.04C1068.29 222.879 1059.5 139.112 1059.5 139.112H1018.71L1042.1 265.136C1042.47 267.941 1042.29 269.623 1041.16 271.493C1036.67 280.281 1029 288.695 1020.02 294.866C1012.73 300.101 1004.49 303.654 997.946 305.897L1008.8 338.806C1016.66 337.123 1033.12 330.579 1046.78 317.677C1064.36 301.223 1080.83 275.607 1097.67 240.829L1145 138.925H1104.4V139.112Z" fill="#CCCCCC"/>
</g>
<defs>
<clipPath id="clip0_45_465">
<rect width="1145" height="359" fill="white"/>
</clipPath>
</defs>
</svg>
