<svg width="1177" height="345" viewBox="0 0 1177 345" fill="none" xmlns="http://www.w3.org/2000/svg">
<g clip-path="url(#clip0_45_433)">
<path d="M459.404 45.3553C458.792 44.5077 457.987 43.8179 457.055 43.3429C456.123 42.8679 455.092 42.6214 454.046 42.6237H395.757L324.235 284.509L297.447 166.994L380.435 53.711C381.012 52.984 381.431 52.1449 381.667 51.2471L383.113 46.2659C383.227 45.9002 383.266 45.5153 383.228 45.1343C383.189 44.7532 383.073 44.384 382.888 44.0487C382.703 43.7134 382.452 43.4191 382.15 43.1834C381.848 42.9477 381.501 42.7755 381.131 42.6773C380.866 42.6208 380.592 42.6208 380.327 42.6773H321.395L257.534 135.553L284.643 51.3543C285.16 49.6283 284.97 47.768 284.116 46.1814C283.263 44.5948 281.814 43.4117 280.089 42.8915C279.447 42.6939 278.778 42.6034 278.107 42.6237H219.549L168.868 214.611C169.993 185.098 147.063 161.799 133.723 147.069C123.008 135.071 116.418 126.555 117.65 117.075C118.475 110.757 121.499 104.933 126.192 100.623C130.885 96.313 136.947 93.7938 143.313 93.5074C157.885 92.3291 164.153 96.8283 173.422 101.167C174.504 101.647 175.667 101.92 176.85 101.97C177.803 101.958 178.747 101.777 179.636 101.435C180.613 101.065 181.492 100.477 182.207 99.7159C182.922 98.9547 183.454 98.0403 183.762 97.0425L197.37 51.0329L187.94 46.6408L186.547 45.9981H186.119C174.918 41.2083 162.833 38.8356 150.652 39.035C99.3812 39.035 52.7176 75.7249 45.0028 120.878C39.6453 152.479 59.843 174.761 74.6297 191.044L75.9155 192.49C86.6304 203.952 94.0237 212.843 91.9879 223.127C89.5235 237.589 75.4869 245.837 61.9324 246.962C47.0387 248.194 37.7166 244.016 26.0909 238.874C24.0609 237.669 21.6656 237.231 19.3405 237.642C18.228 237.976 17.2129 238.574 16.3824 239.385C15.5519 240.197 14.9308 241.198 14.5723 242.302L1.66081 286.759L0 292.436C17.311 300.54 36.1252 304.937 55.2356 305.344C98.9526 305.344 136.723 288.58 159.171 248.087L145.938 293.186C145.684 294.04 145.602 294.937 145.696 295.823C145.79 296.71 146.06 297.569 146.488 298.351C146.916 299.133 147.496 299.822 148.192 300.379C148.888 300.936 149.688 301.349 150.545 301.595C151.166 301.806 151.818 301.915 152.474 301.917H211.031L225.657 252.265L243.444 226.609L257.159 296.239C257.5 297.76 258.349 299.119 259.567 300.093C260.784 301.066 262.297 301.596 263.856 301.595H387.078L460.743 51.2471C461.052 50.2338 461.116 49.1616 460.93 48.1187C460.743 47.0759 460.312 46.0921 459.672 45.2482L459.404 45.3553Z" fill="#CCCCCC"/>
<path d="M536.069 98.5953H557.928C559.413 98.5359 560.895 98.7861 562.278 99.3302C563.662 99.8742 564.917 100.7 565.964 101.755C567.729 103.771 569.033 106.148 569.782 108.72C570.532 111.293 570.71 113.998 570.303 116.646C569.004 130.403 565.381 143.841 559.588 156.389C552.356 172.457 545.659 184.509 526.586 186.705H510.032L536.069 98.5953ZM493.852 242.248H519.3C580.697 243.052 611.77 199.934 625.646 153.121C630.288 139.528 633.046 125.363 633.843 111.022C634.76 93.1423 628.69 75.6067 616.913 62.1197C611.241 55.9009 604.32 50.9495 596.602 47.5898C588.883 44.23 580.543 42.5376 572.125 42.6232H475.315L471.19 56.335C471.012 56.9627 470.967 57.6207 471.06 58.2666C471.152 58.9124 471.379 59.5317 471.726 60.0844L474.458 64.4229C475.806 66.5106 476.677 68.8693 477.011 71.3317C477.344 73.794 477.131 76.2996 476.387 78.6703L413.49 292.918C413.174 293.927 413.101 294.997 413.278 296.039C413.455 297.082 413.876 298.068 414.508 298.917C415.132 299.756 415.938 300.443 416.866 300.925C417.794 301.408 418.82 301.673 419.865 301.702H476.226L493.799 242.248H493.852Z" fill="#CCCCCC"/>
<path d="M683.453 176.153H691.65C699.579 176.153 706.383 183.17 705.312 200.524C704.24 217.878 690.472 276.635 662.988 276.635H653.88L683.453 176.153ZM620.717 301.541H656.452C713.562 301.541 733.439 229.929 735.26 199.774C737.242 166.78 718.866 150.765 698.829 150.765H660.631L617.771 297.096C617.539 297.912 617.64 298.788 618.051 299.53C618.463 300.273 619.152 300.823 619.967 301.059C620.269 301.11 620.577 301.11 620.878 301.059L620.717 301.541Z" fill="#CCCCCC"/>
<path d="M707.99 130.732H721.866L732.581 94.2569H749.297L739.385 128.215C739.253 128.705 739.32 129.227 739.571 129.668C739.822 130.11 740.236 130.434 740.725 130.572H741.26H755.136L779.138 48.6222C779.212 48.3795 779.238 48.1246 779.213 47.872C779.189 47.6194 779.115 47.3741 778.995 47.1502C778.876 46.9262 778.713 46.7281 778.517 46.5671C778.321 46.4061 778.095 46.2854 777.852 46.2119H763.547L753.636 80.2772H736.76L745.975 48.7293C746.049 48.4867 746.075 48.2317 746.05 47.9791C746.026 47.7265 745.952 47.4812 745.832 47.2573C745.713 47.0334 745.551 46.8352 745.354 46.6742C745.158 46.5132 744.932 46.3925 744.689 46.319H730.277L706.276 128.269C706.212 128.522 706.198 128.785 706.236 129.044C706.275 129.302 706.363 129.551 706.498 129.775C706.632 129.999 706.81 130.194 707.02 130.349C707.23 130.504 707.469 130.616 707.722 130.679H708.044L707.99 130.732Z" fill="#CCCCCC"/>
<path d="M771.049 130.358H806.408L809.837 118.789C810.013 118.341 810.004 117.842 809.814 117.401C809.623 116.959 809.265 116.611 808.819 116.432C808.539 116.352 808.242 116.352 807.962 116.432H788.782L795.693 94.5254H813.105L816.534 82.8489C816.608 82.6062 816.634 82.3513 816.609 82.0987C816.585 81.8461 816.511 81.6008 816.391 81.3769C816.272 81.1529 816.109 80.9548 815.913 80.7938C815.717 80.6328 815.491 80.5121 815.248 80.4386H799.925L805.979 60.0851H827.409L830.731 48.5158C830.805 48.2731 830.831 48.0181 830.807 47.7655C830.782 47.5129 830.708 47.2677 830.589 47.0437C830.469 46.8198 830.307 46.6216 830.11 46.4606C829.914 46.2996 829.688 46.1789 829.445 46.1055H793.282L792.853 47.4981L769.281 127.841C769.183 128.351 769.284 128.879 769.562 129.317C769.841 129.755 770.277 130.07 770.781 130.198H771.209L771.049 130.358Z" fill="#CCCCCC"/>
<path d="M669.31 130.358H683.186L703.866 59.9777H717.045L720.313 48.4083C720.377 48.1551 720.39 47.8917 720.352 47.6332C720.314 47.3748 720.226 47.1264 720.091 46.9024C719.957 46.6784 719.779 46.4832 719.569 46.328C719.359 46.1728 719.12 46.0607 718.866 45.998H678.096L674.828 57.5674C674.764 57.8206 674.75 58.0841 674.789 58.3425C674.827 58.6009 674.915 58.8493 675.05 59.0733C675.184 59.2973 675.362 59.4925 675.572 59.6477C675.782 59.8029 676.021 59.9151 676.274 59.9777H687.418L667.542 127.894C667.41 128.384 667.477 128.906 667.727 129.347C667.978 129.789 668.393 130.113 668.881 130.251H669.417L669.31 130.358Z" fill="#CCCCCC"/>
<path d="M771.102 151.086L728.242 297.578C728.01 298.394 728.111 299.27 728.523 300.012C728.934 300.755 729.623 301.305 730.439 301.541C730.74 301.592 731.048 301.592 731.349 301.541H756.369L799.229 155.05C799.342 154.635 799.373 154.201 799.318 153.775C799.264 153.348 799.125 152.936 798.911 152.563C798.697 152.189 798.412 151.862 798.071 151.6C797.73 151.337 797.34 151.144 796.925 151.033C796.66 150.976 796.386 150.976 796.121 151.033L771.102 151.086Z" fill="#CCCCCC"/>
<path d="M997.777 151.087H972.489L954.703 211.826H924.861L941.416 155.211C941.53 154.796 941.56 154.363 941.505 153.936C941.451 153.509 941.313 153.097 941.099 152.724C940.885 152.351 940.599 152.024 940.258 151.761C939.917 151.498 939.528 151.306 939.112 151.194C938.847 151.138 938.573 151.138 938.309 151.194H913.557L870.697 297.686C870.465 298.502 870.566 299.378 870.978 300.12C871.389 300.863 872.078 301.413 872.894 301.649C873.195 301.7 873.503 301.7 873.805 301.649H898.878L917.789 236.679H947.631L929.522 297.578C929.321 298.415 929.448 299.298 929.876 300.044C930.304 300.791 931.002 301.346 931.826 301.596H932.63H957.703L1000.56 155.104C1000.67 154.682 1000.7 154.241 1000.64 153.809C1000.58 153.377 1000.43 152.961 1000.21 152.586C999.981 152.212 999.683 151.886 999.331 151.629C998.978 151.371 998.577 151.187 998.152 151.087C997.886 151.035 997.613 151.035 997.348 151.087H997.777Z" fill="#CCCCCC"/>
<path d="M1061.96 212.468H1035.65L1046.37 176.1H1084.94L1091 155.157C1091.11 154.742 1091.14 154.309 1091.09 153.882C1091.03 153.455 1090.89 153.043 1090.68 152.67C1090.47 152.297 1090.18 151.97 1089.84 151.707C1089.5 151.444 1089.11 151.252 1088.69 151.14C1088.43 151.084 1088.15 151.084 1087.89 151.14H1024.14L981.276 297.632C981.044 298.448 981.145 299.324 981.556 300.066C981.968 300.809 982.657 301.359 983.472 301.595C983.774 301.646 984.081 301.646 984.383 301.595H1048.14L1054.19 280.652C1054.3 280.237 1054.33 279.804 1054.28 279.377C1054.23 278.951 1054.09 278.539 1053.87 278.165C1053.66 277.792 1053.37 277.465 1053.03 277.202C1052.69 276.94 1052.3 276.747 1051.89 276.635C1051.62 276.579 1051.35 276.579 1051.08 276.635H1016.69L1028.37 237.589H1058.74L1065.07 216.485C1065.18 216.063 1065.2 215.623 1065.14 215.19C1065.08 214.758 1064.93 214.342 1064.71 213.968C1064.49 213.593 1064.19 213.268 1063.83 213.01C1063.48 212.752 1063.08 212.568 1062.66 212.468C1062.41 212.413 1062.15 212.413 1061.91 212.468H1061.96Z" fill="#CCCCCC"/>
<path d="M838.552 191.954C839.304 187.165 841.658 182.773 845.229 179.495C848.8 176.216 853.378 174.245 858.214 173.904C863.869 173.584 869.521 174.593 874.715 176.85C875.874 177.378 877.195 177.427 878.389 176.985C879.584 176.544 880.555 175.648 881.091 174.493C881.114 174.387 881.114 174.277 881.091 174.172C881.091 173.743 887.091 153.818 887.091 153.818C879.303 150.388 870.903 148.566 862.393 148.462C835.606 148.462 808.818 168.28 804.747 195.382C801.854 213.432 813.372 226.341 821.623 236.089C828.105 243.534 833.356 250.069 832.016 258.424C831.24 263.602 828.669 268.343 824.752 271.818C820.835 275.294 815.821 277.283 810.586 277.439C803.783 278.148 796.918 276.942 790.764 273.957C790.267 273.651 789.714 273.448 789.137 273.36C788.56 273.273 787.972 273.302 787.406 273.447C786.841 273.592 786.311 273.85 785.848 274.204C785.384 274.559 784.997 275.003 784.71 275.511C784.455 275.884 784.273 276.302 784.174 276.742L777.691 298.971C786.908 302.507 796.696 304.323 806.568 304.327C820.57 304.357 834.139 299.474 844.909 290.527C855.679 281.581 862.966 269.139 865.5 255.371C868.394 237.107 857.036 223.234 848.785 213.807C842.785 206.041 837.427 199.667 838.606 191.793L838.552 191.954Z" fill="#CCCCCC"/>
<path d="M1152.18 148.569C1125.39 148.569 1098.6 168.387 1094.53 195.489C1091.64 213.54 1103.16 226.448 1111.41 236.196C1117.89 243.641 1123.14 250.176 1121.8 258.531C1121.03 263.709 1118.45 268.45 1114.54 271.926C1110.62 275.401 1105.61 277.39 1100.37 277.546C1093.57 278.255 1086.7 277.049 1080.55 274.064C1080.05 273.758 1079.5 273.555 1078.92 273.467C1078.35 273.38 1077.76 273.409 1077.19 273.554C1076.63 273.699 1076.1 273.957 1075.63 274.311C1075.17 274.666 1074.78 275.11 1074.5 275.618C1074.24 275.991 1074.06 276.409 1073.96 276.85L1067.48 299.078C1076.69 302.614 1086.48 304.43 1096.35 304.434C1110.36 304.464 1123.93 299.581 1134.69 290.634C1145.46 281.688 1152.75 269.246 1155.29 255.478C1158.18 237.214 1146.82 223.341 1138.57 213.914C1132.3 206.469 1127.05 199.935 1128.34 192.008C1129.09 187.184 1131.46 182.76 1135.06 179.467C1138.67 176.175 1143.29 174.212 1148.16 173.904C1153.82 173.584 1159.47 174.593 1164.66 176.85C1165.82 177.378 1167.14 177.427 1168.34 176.985C1169.53 176.544 1170.5 175.648 1171.04 174.493C1171.06 174.387 1171.06 174.277 1171.04 174.172C1171.04 173.743 1177.04 153.818 1177.04 153.818C1169.23 150.388 1160.81 148.566 1152.29 148.462L1152.18 148.569Z" fill="#CCCCCC"/>
</g>
<defs>
<clipPath id="clip0_45_433">
<rect width="1177" height="345" fill="white"/>
</clipPath>
</defs>
</svg>
