<svg width="737" height="249" viewBox="0 0 737 249" fill="none" xmlns="http://www.w3.org/2000/svg">
<path d="M684.896 178.17C684.896 161.945 695.508 148.539 710.794 148.539C726.081 148.539 737 161.954 737 178.17C737 194.386 726.697 207.195 710.794 207.195C694.892 207.195 684.896 194.088 684.896 178.17Z" fill="#CCCCCC"/>
<path d="M1.26923 152.274V186.61C13.1122 199.082 35.8929 207.821 68.3235 207.821C113.885 207.821 145.382 186.918 145.382 143.545C145.382 121.709 139.745 105.791 121.36 94.5606C110.569 87.8174 95.271 84.522 81.3251 81.5178C72.6814 79.6559 64.557 77.9057 58.347 75.5159C48.6692 72.3979 45.2628 67.0859 45.2628 59.2906C45.2628 43.6908 58.3377 40.5633 77.0588 40.5633C100.138 40.5633 123.227 47.7424 133.185 54.6135V18.7273C121.967 7.1791 102.005 0 74.875 0C36.1916 0 0 18.1111 0 63.3423C0 86.4386 6.88741 103.28 24.6659 113.587C36.2358 120.144 51.1383 123.482 63.8556 126.331C71.7057 128.089 78.7231 129.661 83.6102 131.688C94.2307 135.423 97.0211 140.109 97.0211 148.213C97.0211 163.822 87.3152 170.366 62.0707 170.366C36.8262 170.366 14.0735 161.637 1.26923 152.274Z" fill="#CCCCCC"/>
<path fill-rule="evenodd" clip-rule="evenodd" d="M203.365 66.7591L209.87 87.0641C214.275 65.5642 231.755 46.8182 260.415 46.8182C300.34 46.8182 322.178 78.9608 322.178 124.192V124.509C322.178 177.545 295.664 206.878 258.53 206.878C232.324 206.878 216.422 192.846 211.139 171.934V249H161.845V52.7837L180.305 50.9165H183.478C187.939 50.9165 192.297 52.5223 195.909 55.5097C199.324 58.329 201.919 62.25 203.365 66.7591ZM242.935 173.493C261.022 173.493 272.249 159.761 272.249 128.244C272.249 99.9846 261.992 82.0696 242.637 82.0696C224.55 82.0696 211.139 97.1373 211.139 127.002C211.139 160.078 224.849 173.493 242.935 173.493Z" fill="#CCCCCC"/>
<path fill-rule="evenodd" clip-rule="evenodd" d="M617.403 5.01326V82.0789C612.121 61.1671 596.219 47.1356 570.013 47.1356C532.879 47.1356 506.365 76.4682 506.365 129.504V129.821C506.365 175.052 528.203 207.195 568.128 207.195C596.788 207.195 614.268 188.449 618.673 166.949L625.177 187.254C626.624 191.763 629.218 195.684 632.634 198.504C636.246 201.491 640.604 203.097 645.065 203.097H648.238L666.175 201.23H666.689V5.01326H617.403ZM585.915 171.944C566.56 171.944 556.303 154.029 556.303 125.77C556.303 94.2526 567.53 80.5198 585.617 80.5198C603.703 80.5198 617.413 93.9352 617.413 127.011C617.413 156.876 604.002 171.944 585.915 171.944Z" fill="#CCCCCC"/>
<path d="M467.243 203.442C462.782 203.442 458.424 202.032 454.812 199.409V199.39C451.396 196.917 448.802 193.472 447.355 189.504L440.851 171.664C433.133 195.525 415.83 207.176 390.119 207.176C357.959 207.176 339.574 189.392 339.574 150.08V50.5338H388.85V146.028C388.85 164.746 395.7 173.167 410.688 173.167C428.168 173.167 439.087 159.126 439.087 131.679V50.5431H488.363V201.575L470.416 203.442H467.243Z" fill="#CCCCCC"/>
</svg>
