<svg width="893" height="358" viewBox="0 0 893 358" fill="none" xmlns="http://www.w3.org/2000/svg">
<g clip-path="url(#clip0_49_1318)">
<path d="M668.239 67.8127C671.681 67.809 675.124 67.8054 678.67 67.8016C682.296 67.8126 685.922 67.8236 689.657 67.8349C695.096 67.8184 695.096 67.8184 700.644 67.8016C705.808 67.8071 705.808 67.8071 711.076 67.8127C714.26 67.8159 717.444 67.8191 720.724 67.8224C728.051 68.1901 728.051 68.1901 730.895 71.0313C731.554 75.335 732.067 79.6618 732.494 83.9946C732.852 87.5162 732.852 87.5162 733.216 91.1089C733.389 92.9219 733.561 94.7349 733.739 96.6028C736.759 95.0279 739.78 93.4529 742.893 91.8303C746.95 89.7499 751.009 87.6708 755.068 85.5928C757.048 84.5563 759.028 83.5198 761.067 82.4519C785.785 69.8759 813.667 61.8756 840.998 70.6762C866.326 82.2441 878.289 98.1959 887.99 123.795C892.418 137.907 893.348 150.765 893.323 165.557C893.323 167.582 893.323 169.607 893.324 171.694C893.322 178.35 893.3 185.007 893.277 191.663C893.272 196.293 893.268 200.923 893.265 205.553C893.254 217.712 893.227 229.87 893.195 242.028C893.166 254.446 893.153 266.864 893.139 279.282C893.108 303.627 893.06 327.972 893 352.317C881.306 352.387 869.613 352.439 857.919 352.473C853.938 352.487 849.957 352.507 845.977 352.531C840.266 352.566 834.555 352.58 828.844 352.595C825.404 352.609 821.964 352.624 818.419 352.64C810.525 352.317 810.525 352.317 807.681 349.476C807.374 343.799 807.265 338.111 807.233 332.425C807.204 328.774 807.174 325.123 807.144 321.36C807.135 319.396 807.125 317.431 807.115 315.407C807.081 309.268 807.026 303.13 806.964 296.991C806.788 279.532 806.635 262.073 806.54 244.614C806.48 233.943 806.38 223.274 806.253 212.604C806.213 208.54 806.188 204.475 806.179 200.411C806.165 194.712 806.095 189.013 806.022 183.314C805.999 180.073 805.976 176.833 805.952 173.494C804.603 162.967 801.03 155.307 793.462 147.746C778.122 146.312 764.099 145.08 750.447 152.718C740.619 164.5 738.708 172.804 738.565 188.153C738.518 191.726 738.47 195.3 738.421 198.982C738.397 202.869 738.373 206.755 738.349 210.642C738.303 214.632 738.254 218.622 738.202 222.613C738.073 233.098 737.974 243.583 737.883 254.068C737.736 270.882 737.551 287.695 737.348 304.508C737.283 310.39 737.237 316.272 737.192 322.154C737.154 325.701 737.116 329.248 737.076 332.902C737.049 336.041 737.022 339.181 736.994 342.415C736.583 349.476 736.583 349.476 733.739 352.317C727.671 352.601 721.594 352.689 715.52 352.694C711.821 352.698 708.122 352.702 704.31 352.706C702.374 352.7 700.438 352.694 698.443 352.687C692.526 352.672 686.61 352.687 680.692 352.706C675.144 352.7 675.144 352.7 669.483 352.694C666.061 352.691 662.639 352.688 659.113 352.685C651.264 352.317 651.264 352.317 648.42 349.476C648.134 340.842 648.033 332.273 648.052 323.638C648.047 320.926 648.042 318.215 648.037 315.421C648.024 306.41 648.033 297.399 648.042 288.388C648.041 282.157 648.038 275.925 648.034 269.693C648.03 256.613 648.036 243.533 648.049 230.453C648.066 213.646 648.056 196.839 648.039 180.031C648.029 167.157 648.032 154.283 648.04 141.409C648.041 135.21 648.039 129.011 648.033 122.812C648.025 114.164 648.036 105.517 648.052 96.8691C648.046 94.2802 648.041 91.6912 648.035 89.0237C648.104 68.7521 648.162 67.8329 668.239 67.8127Z" fill="#CCCCCC"/>
<path d="M238.803 67.8129C242.245 67.8092 245.688 67.8055 249.234 67.8018C252.86 67.8127 256.486 67.8237 260.221 67.8351C265.66 67.8186 265.66 67.8186 271.208 67.8018C276.372 67.8073 276.372 67.8073 281.64 67.8129C284.824 67.8161 288.008 67.8193 291.288 67.8226C298.615 68.1902 298.615 68.1902 301.459 71.0315C301.663 75.3482 301.697 79.6737 301.636 83.9948C301.611 86.3425 301.585 88.6902 301.559 91.109C301.526 92.922 301.493 94.735 301.459 96.6029C304.56 94.5977 304.56 94.5977 307.724 92.5519C339.359 72.9809 366.784 66.4179 403.841 68.1902C405.818 73.0847 405.818 73.0847 406.685 79.5553C403.108 85.5819 403.108 85.5819 397.797 92.1634C387.137 106.435 381.145 120.821 375.246 137.546C372.557 144.904 372.557 144.904 369.713 147.746C365.276 148.121 360.83 148.401 356.382 148.634C342.749 149.936 334.616 152.546 324.21 161.952C313.211 177.146 309.697 190.672 309.407 209.102C309.35 212.287 309.293 215.472 309.235 218.753C309.187 222.174 309.14 225.596 309.091 229.122C309.032 232.637 308.972 236.153 308.912 239.775C308.757 249.098 308.614 258.421 308.477 267.744C308.334 277.267 308.175 286.79 308.019 296.313C307.714 314.981 307.425 333.649 307.147 352.317C295.048 352.387 282.949 352.439 270.851 352.473C266.732 352.488 262.613 352.507 258.495 352.532C252.586 352.566 246.678 352.582 240.769 352.595C237.21 352.61 233.65 352.624 229.983 352.64C221.828 352.317 221.828 352.317 218.984 349.476C218.698 340.842 218.597 332.273 218.616 323.638C218.611 320.926 218.606 318.215 218.601 315.421C218.588 306.41 218.597 297.399 218.606 288.389C218.604 282.157 218.602 275.925 218.598 269.693C218.594 256.613 218.6 243.533 218.613 230.453C218.63 213.646 218.62 196.839 218.603 180.032C218.593 167.157 218.596 154.283 218.604 141.409C218.605 135.21 218.603 129.011 218.596 122.812C218.589 114.164 218.6 105.517 218.616 96.8693C218.61 94.2803 218.605 91.6913 218.599 89.0239C218.668 68.7522 218.726 67.8331 238.803 67.8129Z" fill="#CCCCCC"/>
<path fill-rule="evenodd" clip-rule="evenodd" d="M512.541 61.5167L504.623 61.4418C468.013 60.862 437.712 70.814 410.051 95.5371C381.986 125.992 371.53 164.331 371.391 204.898L371.491 214.693C371.268 236.555 372.391 256.157 378.653 277.192C389.579 308.289 406.96 331.569 436.891 346.545C470.857 361.256 515.865 365.482 551.182 352.228L557.414 349.476C572.459 343.361 585.642 336.422 597.763 325.502C620.867 300.691 635.864 264.413 637.407 230.762C638.673 181.067 638.01 130.747 601.673 92.274C576.889 70.0706 544.995 62.2178 512.541 61.5167ZM556.703 164.972C550.195 147.766 540.025 135.779 523.286 127.858C495.862 125.455 479.658 127.436 460.719 147.747C441.91 174.001 446.573 216.646 450.677 247.225C453.876 265.204 463.542 277.065 478.139 287.857C493.051 295.788 509.351 294.524 525.419 290.876C537.329 283.605 545.424 275.736 552.492 263.85C565.361 234.911 564.959 195.322 556.703 164.972Z" fill="#CCCCCC"/>
<path fill-rule="evenodd" clip-rule="evenodd" d="M65.2331 -0.176724L0.143339 0.000465035H82.4745C72.7923 32.244 60.825 61.7975 31.1501 80.3551C20.419 85.9978 12.2023 88.4829 0 90.9211V144.906H39.8153C39.7567 160.068 39.7077 175.231 39.6764 190.394C39.6648 196.6 39.6518 202.806 39.6375 209.012C39.6013 218.13 39.5656 227.248 39.5498 236.366L39.5376 245.071C39.4464 262.18 39.5534 278.634 42.6592 295.493C50.6743 318.587 63.9561 334.283 84.7519 346.902C107.833 357.568 137.112 354.687 160.728 347.213L168.504 344.505L176.192 341.886L184.857 338.112C193.646 334.42 200.953 330.831 207.608 323.906C209.697 316.447 209.833 310.19 209.608 302.457L209.03 294.605C208.674 285.417 208.272 276.252 207.608 267.08L202.476 265.316C200.038 264.895 198.552 264.639 197.117 264.81C194.878 265.078 192.762 266.388 187.345 269.744C184.845 271.397 183.567 272.241 182.223 272.963C180.819 273.717 179.343 274.337 176.325 275.604C164.827 276.947 152.734 278.026 142.197 272.763C136.274 262.001 135.737 252.04 135.432 240.052L135.332 232.929C135.16 225.334 134.996 217.738 134.865 210.142C134.776 204.864 134.677 199.587 134.568 194.309C134.234 178.789 133.932 163.269 133.666 147.747C142.044 147.805 150.422 147.852 158.8 147.886L169.037 147.924L179.241 147.997L188.934 148.024C194.211 148.051 199.493 147.995 204.764 147.747C205.838 146.675 206.506 146.007 206.942 145.212C207.661 143.9 207.747 142.242 207.976 137.847L207.986 128.568L207.997 118.535L207.964 107.969L207.997 97.4031L207.986 87.3699C207.98 81.9227 207.892 76.4724 207.608 71.0326C206.517 69.9419 205.844 69.27 205.042 68.8377C203.755 68.1438 202.135 68.0675 197.915 67.8688L188.934 67.9139L179.241 67.9416L169.037 68.0138C159.407 68.0503 149.777 68.0874 140.147 68.1462L133.666 68.1913C133.724 60.4944 133.771 52.7976 133.804 45.1005L133.843 35.6943L133.916 26.3214L133.943 17.4147C133.97 12.5564 133.913 7.69423 133.666 2.84213C132.42 1.59759 131.72 0.898192 130.88 0.476427C129.803 -0.0646989 128.496 -0.148805 125.513 -0.34082L118.49 -0.321701L110.442 -0.320661L101.927 -0.276613C96.5681 -0.270644 91.2096 -0.263403 85.851 -0.255109L65.2331 -0.176724Z" fill="#CCCCCC"/>
</g>
<defs>
<clipPath id="clip0_49_1318">
<rect width="893" height="358" fill="white"/>
</clipPath>
</defs>
</svg>
