<svg width="1294" height="412" viewBox="0 0 1294 412" fill="none" xmlns="http://www.w3.org/2000/svg">
<path d="M341.779 201.473C338.414 19.3542 96.9183 -48.0297 3.69579 121.672C8.16385 125.038 13.7903 129.564 17.1551 131.771C10.2694 146.032 5.35192 161.163 2.53745 176.749C1.18548 187.183 0.430361 197.686 0.275816 208.206C-1.0455 231.453 2.39037 254.725 10.3729 276.598C18.3555 298.47 30.7168 318.481 46.6998 335.407C62.6828 352.333 81.9509 365.816 103.324 375.032C124.698 384.247 147.726 389 171 389C194.274 389 217.302 384.247 238.676 375.032C260.049 365.816 279.317 352.333 295.3 335.407C311.283 318.481 323.644 298.47 331.627 276.598C339.61 254.725 343.046 231.453 341.724 208.206V201.473H341.779ZM42.9707 231.826C41.6194 240.754 41.2494 249.804 41.8675 258.813L37.3994 259.917C33.7833 250.937 31.5155 241.47 30.6697 231.826C28.1832 204.974 36.1327 178.196 52.8667 157.055C69.6007 135.915 93.8325 122.037 120.527 118.305C173.317 110.414 222.741 143.029 235.097 189.111L230.629 190.215C229.526 189.111 227.264 185.744 219.597 176.749C156.713 112.676 56.7058 141.926 43.081 231.937L42.9707 231.826ZM204.703 262.179C200.431 268.37 194.732 273.442 188.089 276.967C181.445 280.492 174.052 282.367 166.532 282.433C154.046 282.361 142.092 277.366 133.263 268.533C124.434 259.699 119.441 247.74 119.369 235.248C119.3 223.392 123.823 211.971 131.989 203.379C140.155 194.788 151.329 189.694 163.167 189.166C170.803 188.631 178.419 190.442 184.998 194.358C191.576 198.273 196.802 204.106 199.975 211.074C203.149 218.043 204.119 225.815 202.756 233.351C201.393 240.886 197.761 247.825 192.347 253.239C196.815 256.605 201.339 259.972 204.703 262.234V262.179ZM302.449 264.442C277.737 320.623 227.209 349.872 173.262 348.713C68.7862 343.194 38.4475 223.99 108.116 180.171L111.481 183.537C106.404 188.553 102.618 194.727 100.449 201.528C93.7554 213.916 90.642 227.923 91.4574 241.981C96.9735 326.252 213.915 343.139 254.349 259.972C304.876 145.347 168.959 29.6191 47.6593 118.361L45.3979 114.994C76.8398 65.3253 138.62 43.2504 198.139 57.6544C219.527 62.8413 239.534 72.612 256.779 86.2916C274.023 99.9713 288.093 117.234 298.017 136.886C307.94 156.538 313.481 178.111 314.256 200.115C315.031 222.119 311.021 244.03 302.504 264.332L302.449 264.442Z" fill="#CCCCCC"/>
<path d="M547.347 127.641V218.777C547.347 255.283 525.182 282.822 484.761 282.822C444.339 282.822 422.174 255.411 422.174 218.777V127.641H454.781V216.343C454.781 238.503 465.222 251.568 484.761 251.568C504.299 251.568 514.74 238.759 514.74 216.343V127.641H547.347ZM671.238 237.158C671.238 263.224 650.354 282.822 616.467 282.822H562.977V129.114H613.84C643.82 129.114 663.422 143.461 663.422 165.62C663.955 172.409 662.359 179.196 658.858 185.038C655.357 190.879 650.124 195.486 643.884 198.219C652.055 200.928 659.134 206.198 664.073 213.246C669.011 220.295 671.546 228.748 671.301 237.35L671.238 237.158ZM596.865 158.895V191.494H613.84C615.981 191.631 618.128 191.328 620.147 190.603C622.166 189.878 624.015 188.747 625.58 187.279C627.145 185.812 628.392 184.039 629.244 182.071C630.097 180.102 630.537 177.98 630.537 175.835C630.537 173.69 630.097 171.568 629.244 169.6C628.392 167.631 627.145 165.859 625.58 164.391C624.015 162.924 622.166 161.792 620.147 161.067C618.128 160.342 615.981 160.039 613.84 160.176L596.865 158.895ZM615.122 252.785C629.471 252.785 637.286 246.38 637.286 233.251C637.286 220.122 629.471 213.718 615.122 213.718H596.865V251.568L615.122 252.849V252.785ZM684.562 129.114H717.168V281.541H684.562V129.114ZM796.73 191.686C822.802 200.652 835.614 212.373 835.614 235.877C835.614 267.195 810.823 285.448 782.124 285.448C756.052 285.448 735.169 273.727 727.353 251.568L753.426 232.034C755.433 238.425 759.417 244.014 764.805 247.997C770.193 251.979 776.705 254.149 783.405 254.194C785.641 254.423 787.9 254.195 790.045 253.524C792.191 252.853 794.177 251.754 795.884 250.293C797.592 248.832 798.984 247.038 799.977 245.023C800.971 243.007 801.544 240.811 801.662 238.567C801.662 229.409 795.256 224.221 774.245 216.407C750.735 207.249 732.478 195.529 732.478 170.744C732.478 145.958 753.362 127.705 782.06 127.705C805.57 127.705 823.827 136.864 831.642 155.117L805.57 173.369C800.381 161.649 792.758 155.117 780.779 155.117C770.337 155.117 763.803 160.304 763.803 167.926C765.148 177.212 774.565 183.745 796.73 191.558V191.686ZM1001.72 206.032C1002.02 216.392 1000.2 226.703 996.375 236.334C992.547 245.966 986.792 254.714 979.462 262.042C972.132 269.37 963.382 275.124 953.748 278.951C944.115 282.777 933.801 284.596 923.439 284.295C876.484 284.295 845.159 250.415 845.159 211.284C844.681 200.43 846.663 189.608 850.955 179.627C855.248 169.646 861.741 160.764 869.95 153.644L864.761 148.456C880.575 134.339 901.225 126.861 922.414 127.577C969.37 126.297 1001.98 161.457 1001.98 205.84L1001.72 206.032ZM967.833 206.032C967.833 178.621 950.857 159.087 923.503 159.087C910.968 158.772 898.807 163.369 889.616 171.896L894.805 177.084C889.781 180.872 885.74 185.809 883.02 191.481C880.301 197.153 878.982 203.395 879.174 209.683C879.043 215.48 880.11 221.242 882.308 226.608C884.506 231.974 887.788 236.829 891.949 240.868C896.11 244.908 901.06 248.046 906.49 250.085C911.919 252.125 917.711 253.022 923.503 252.721C950.921 252.721 967.833 233.187 967.833 205.776V206.032ZM1048.68 161.713V196.938H1113.89V221.723H1048.48V281.733H1014.6V129.114H1118.95V160.432H1048.48L1048.68 161.713ZM1252.19 161.713H1209.14V282.822H1176.54V161.585H1132.21V129.114H1250.72V161.713H1252.19Z" fill="#CCCCCC"/>
</svg>
